<svg width="1024" height="1024" viewBox="0 0 1024 1024" fill="none" xmlns="http://www.w3.org/2000/svg">
  <!-- Foreground Layer -->
  <g>
    <!-- EV Charging Icon -->
    <path d="M512 192C335.4 192 192 335.4 192 512s143.4 320 320 320 320-143.4 320-320S688.6 192 512 192zm144 400h-48v112c0 13.3-10.7 24-24 24s-24-10.7-24-24V592h-96v112c0 13.3-10.7 24-24 24s-24-10.7-24-24V592h-48c-13.3 0-24-10.7-24-24s10.7-24 24-24h288c13.3 0 24 10.7 24 24s-10.7 24-24 24z" fill="white"/>
    
    <!-- Lightning Bolt -->
    <path d="M480 320l-96 192h128l-32 192 96-192h-128l32-192z" fill="#FFEB3B"/>
  </g>
</svg> 
